<svg id="axdevapps" data-name="Layer 1" xmlns="http://www.w3.org/2000/svg" viewBox="0 0 1015 225">
  <title>axdevapps</title>
  <g>
    <path d="M302.87,103.86q0,11.25-10.75,11.24H246.51V64.43h45.61q5.29,0,8.14,3.17c1.74,2,2.61,4.65,2.61,8.08Zm-8.38.1V75.5a3.91,3.91,0,0,0-1-2.69,3.22,3.22,0,0,0-2.49-1.1H254.73v36h35.49Q294.5,107.75,294.49,104Z" fill="#ddd"/>
    <path d="M356.38,115.1H320.1q-10.75,0-10.75-11.24V75.68q0-11.25,10.75-11.25h36.28v7.28h-35.1q-3.39,0-3.39,4v9.17h35.57v8.14H317.89V104q0,3.8,4.26,3.79h34.23Z" fill="#ddd"/>
    <path d="M417.88,64.43,393.53,115.1c-3.21,0-6.43,0-9.64,0L359.54,64.43h9l20.15,41,20.16-41Z" fill="#ddd"/>
    <path d="M432.66,115.1H424.6v-8.3h8.06Z" fill="#ddd"/>
    <path d="M497.48,115.1H488.8l-4.36-8.93h-32l-4.38,8.93h-8.68l24.35-50.67h9.48ZM480.83,98.82,468.42,73.1,456.06,98.82Z" fill="#ddd"/>
    <path d="M554.55,86.73q0,13-14.07,13h-31.3V115.1H500.8V78c0-4.69.84-8,2.53-10q2.85-3.49,9.88-3.49h28.54q12.79,0,12.8,12.34Zm-8.93,1.42V76.05c0-2-.34-3.32-1-3.79a4.08,4.08,0,0,0-2.45-.55H514.32c-2,0-3.3.38-4,1.14s-1.11,2.1-1.11,4V92.5h32.41a4.2,4.2,0,0,0,3.16-1A5.07,5.07,0,0,0,545.62,88.15Z" fill="#ddd"/>
    <path d="M615.1,86.73q0,13-14.07,13h-31.3V115.1h-8.38V78c0-4.69.84-8,2.53-10q2.85-3.49,9.88-3.49H602.3q12.8,0,12.8,12.34Zm-8.93,1.42V76.05c0-2-.34-3.32-1-3.79a4.08,4.08,0,0,0-2.45-.55H574.87c-2,0-3.3.38-4,1.14s-1.11,2.1-1.11,4V92.5h32.41a4.2,4.2,0,0,0,3.16-1A5.07,5.07,0,0,0,606.17,88.15Z" fill="#ddd"/>
    <path d="M672.33,100.27A14.31,14.31,0,0,1,668,110.72a14.15,14.15,0,0,1-10.43,4.38H623.24v-7.59h33.6a7.21,7.21,0,0,0,5.22-2.17,6.94,6.94,0,0,0,2.21-5.1,6.69,6.69,0,0,0-2.1-5,7.17,7.17,0,0,0-5.17-2H634.78a14.6,14.6,0,0,1-10.35-4,13.89,13.89,0,0,1-4.27-10.66,14,14,0,0,1,14.07-14.11h33.83v7.51h-33.2a6,6,0,0,0-4.58,2,6.84,6.84,0,0,0-1.82,4.81,6,6,0,0,0,1.86,4.54A6.44,6.44,0,0,0,634.94,85l22.14.08a15.22,15.22,0,0,1,10.79,4.18A14.36,14.36,0,0,1,672.33,100.27Z" fill="#ddd"/>
  </g>
  <g>
    <path d="M259.93,160.56,258.38,154h-9.61l-1.54,6.52h-4.1l8.07-29.25H256L264,160.56Zm-4.85-20.39c-.16-.7-.34-1.43-.52-2.19s-.34-1.47-.48-2.11-.33-1.45-.5-2.18c-.17.73-.34,1.45-.5,2.18s-.3,1.33-.48,2.08-.36,1.5-.53,2.22l-2.59,10.61h8.19Z" fill="#999"/>
    <path d="M286.59,149.36a18.42,18.42,0,0,1-.5,4.58,11.68,11.68,0,0,1-1.3,3.17,7.86,7.86,0,0,1-1.78,2,7.57,7.57,0,0,1-2,1.17,8.35,8.35,0,0,1-1.9.52,10.48,10.48,0,0,1-1.53.13,7.74,7.74,0,0,1-2.71-.44,8.77,8.77,0,0,1-1.67-.77v8.73h-3.76V138.41h2.88l.54,2.43a12.78,12.78,0,0,1,1-1,6.7,6.7,0,0,1,1.26-.92,7.25,7.25,0,0,1,1.58-.64,7.08,7.08,0,0,1,2-.25,10.88,10.88,0,0,1,2.57.35,5.64,5.64,0,0,1,2.59,1.55,9.08,9.08,0,0,1,2,3.42A18.56,18.56,0,0,1,286.59,149.36Zm-3.76,0a19.63,19.63,0,0,0-.38-4.26,7.07,7.07,0,0,0-1-2.51A3.27,3.27,0,0,0,280,141.4a5,5,0,0,0-1.76-.31,6.56,6.56,0,0,0-3.05.69,8.85,8.85,0,0,0-2,1.27v14.08c.3.12.82.28,1.54.5a8.51,8.51,0,0,0,2.55.34,6.29,6.29,0,0,0,1.94-.31A3.86,3.86,0,0,0,281,156.4a7.22,7.22,0,0,0,1.3-2.61A16,16,0,0,0,282.83,149.36Z" fill="#999"/>
    <path d="M311.24,149.36a18.42,18.42,0,0,1-.5,4.58,11.68,11.68,0,0,1-1.3,3.17,8,8,0,0,1-1.77,2,7.78,7.78,0,0,1-2,1.17,8.35,8.35,0,0,1-1.9.52,10.47,10.47,0,0,1-1.52.13,7.76,7.76,0,0,1-2.72-.44,8.77,8.77,0,0,1-1.67-.77v8.73h-3.76V138.41H297l.54,2.43a11.37,11.37,0,0,1,1-1,6.32,6.32,0,0,1,1.25-.92,7.14,7.14,0,0,1,1.59-.64,7,7,0,0,1,2-.25,10.81,10.81,0,0,1,2.57.35,5.59,5.59,0,0,1,2.59,1.55,9.09,9.09,0,0,1,2,3.42A18.87,18.87,0,0,1,311.24,149.36Zm-3.76,0a19.63,19.63,0,0,0-.38-4.26,7.07,7.07,0,0,0-1-2.51,3.27,3.27,0,0,0-1.46-1.19,4.94,4.94,0,0,0-1.76-.31,6.56,6.56,0,0,0-3.05.69,9.1,9.1,0,0,0-2,1.27v14.08c.3.12.82.28,1.55.5A8.4,8.4,0,0,0,302,158a6.4,6.4,0,0,0,2-.31,3.89,3.89,0,0,0,1.77-1.26,7.22,7.22,0,0,0,1.3-2.61A16,16,0,0,0,307.48,149.36Z" fill="#999"/>
    <path d="M329.79,154.5a6.94,6.94,0,0,1-.69,3.32,5.19,5.19,0,0,1-1.79,2,7.17,7.17,0,0,1-2.53.94,17.35,17.35,0,0,1-2.89.25,11.45,11.45,0,0,1-1.75-.13c-.59-.08-1.12-.18-1.59-.29a9.49,9.49,0,0,1-1.55-.46v-3.34c.62.19,1.22.36,1.8.5a14.32,14.32,0,0,0,1.59.35,8.63,8.63,0,0,0,1.5.15,9.47,9.47,0,0,0,1.59-.13,3.64,3.64,0,0,0,1.38-.48,2.74,2.74,0,0,0,1-1,3.23,3.23,0,0,0,.38-1.67,4,4,0,0,0-.23-1.44,2.63,2.63,0,0,0-.63-.94,3.82,3.82,0,0,0-.94-.65c-.36-.18-.77-.35-1.21-.52l-2.17-.88a13.18,13.18,0,0,1-1.32-.65,6,6,0,0,1-1.42-1.08,5.93,5.93,0,0,1-1.15-1.69,5.86,5.86,0,0,1-.46-2.47,5.51,5.51,0,0,1,2-4.6,8.26,8.26,0,0,1,5.26-1.58,12.6,12.6,0,0,1,2,.14c.61.1,1.14.2,1.59.32a11.77,11.77,0,0,1,1.42.41V142a15.55,15.55,0,0,0-1.59-.42c-.48-.11-1-.22-1.59-.31a10.14,10.14,0,0,0-1.71-.15,6,6,0,0,0-2.72.58,2.32,2.32,0,0,0-1.13,2.26,3.51,3.51,0,0,0,.25,1.42,2.4,2.4,0,0,0,.67.88,4.25,4.25,0,0,0,.88.54c.31.14.61.27.92.38l2.17.88a11.69,11.69,0,0,1,1.72.81,6.23,6.23,0,0,1,1.5,1.23,5.81,5.81,0,0,1,1.06,1.82A7.26,7.26,0,0,1,329.79,154.5Z" fill="#999"/>
    <path d="M348.59,148.23v-3.55h15.88v3.55Z" fill="#999"/>
    <path d="M385.36,160.56V131.31h14.21v3.51H389.12V143h9.62v3.26h-9.62v10.78h10.45v3.51Z" fill="#999"/>
    <path d="M419.21,160.56V144.43a3.82,3.82,0,0,0-.31-1.73,2,2,0,0,0-.84-.9,3,3,0,0,0-1.15-.36c-.42,0-.83-.06-1.25-.06a7.17,7.17,0,0,0-2.26.36,13.45,13.45,0,0,0-1.92.77,11.25,11.25,0,0,0-1.88,1.09v17h-3.76V138.41h2.8l.83,2.72a20.72,20.72,0,0,1,2.13-1.55,14.45,14.45,0,0,1,2.26-1.08,7.43,7.43,0,0,1,2.76-.5,9.79,9.79,0,0,1,2.55.31,4.67,4.67,0,0,1,2,1.07,5,5,0,0,1,1.32,2,9.18,9.18,0,0,1,.48,3.2v16Z" fill="#999"/>
    <path d="M445,160.56l-.46-2.38c-.19.22-.47.49-.81.81a7.4,7.4,0,0,1-1.28.92,7.62,7.62,0,0,1-1.75.75,7.52,7.52,0,0,1-2.26.32,10.61,10.61,0,0,1-1.71-.15,6.27,6.27,0,0,1-1.82-.6,7.59,7.59,0,0,1-1.73-1.24,6.9,6.9,0,0,1-1.49-2.07,12.75,12.75,0,0,1-1-3.11,21.6,21.6,0,0,1-.38-4.32,15.35,15.35,0,0,1,1-6.12,9.17,9.17,0,0,1,2.42-3.47,7,7,0,0,1,3-1.55,12.3,12.3,0,0,1,2.59-.35,6,6,0,0,1,1.83.25,7.28,7.28,0,0,1,1.4.58,5.29,5.29,0,0,1,1,.67c.25.22.44.4.58.54v-9.57h3.76v30.09Zm-.92-17.8c-.14-.11-.35-.26-.62-.44a8.83,8.83,0,0,0-1-.54,6.73,6.73,0,0,0-1.27-.46,5.73,5.73,0,0,0-1.51-.19,7.52,7.52,0,0,0-2,.27,3.91,3.91,0,0,0-1.82,1.15,6.59,6.59,0,0,0-1.33,2.53,15,15,0,0,0-.53,4.41,17.28,17.28,0,0,0,.48,4.59,6.29,6.29,0,0,0,1.26,2.53,3.27,3.27,0,0,0,1.69,1.07,8,8,0,0,0,1.8.21,5.56,5.56,0,0,0,1.56-.23,7.17,7.17,0,0,0,1.4-.57,8.16,8.16,0,0,0,1.11-.69c.32-.23.56-.42.73-.56Z" fill="#999"/>
    <path d="M479.17,160.23c-.45.14-.92.26-1.42.37a11.64,11.64,0,0,1-1.46.27,13.81,13.81,0,0,1-1.72.11,8.53,8.53,0,0,1-2.13-.25,3.49,3.49,0,0,1-1.56-.9,4.09,4.09,0,0,1-1-1.71,9.29,9.29,0,0,1-.33-2.7V141.3H465.8v-2.89h3.76l.17-5,3.59-1.67v6.68h5l-.41,2.89h-4.6v14.25c0,1,.17,1.59.5,1.86a2.62,2.62,0,0,0,1.59.39,7.25,7.25,0,0,0,1.15-.1,11.1,11.1,0,0,0,1.23-.27c.45-.11.91-.24,1.38-.38Z" fill="#999"/>
    <path d="M500.65,149.49a18,18,0,0,1-.86,6.16,8.64,8.64,0,0,1-2.19,3.47,6.32,6.32,0,0,1-2.93,1.52,14.54,14.54,0,0,1-3.09.34,13.46,13.46,0,0,1-3.09-.38,6.7,6.7,0,0,1-2.93-1.56,8.64,8.64,0,0,1-2.19-3.47,17.72,17.72,0,0,1-.86-6.08,17.25,17.25,0,0,1,.86-6,9,9,0,0,1,2.19-3.49,6.76,6.76,0,0,1,2.95-1.63,13,13,0,0,1,3.07-.39,14.68,14.68,0,0,1,3.07.35,6.44,6.44,0,0,1,3,1.57,8.8,8.8,0,0,1,2.19,3.49A17.68,17.68,0,0,1,500.65,149.49Zm-3.76,0a18.28,18.28,0,0,0-.5-4.8,6.28,6.28,0,0,0-1.3-2.57,3.42,3.42,0,0,0-1.71-1,7.82,7.82,0,0,0-3.6,0,3.31,3.31,0,0,0-1.71,1.09,6.5,6.5,0,0,0-1.29,2.6,17.28,17.28,0,0,0-.51,4.73,15.55,15.55,0,0,0,.57,4.73,6.61,6.61,0,0,0,1.38,2.58,3.4,3.4,0,0,0,1.73,1.06,6.87,6.87,0,0,0,1.63.21,6.5,6.5,0,0,0,1.63-.23,3.51,3.51,0,0,0,1.73-1.11,6.78,6.78,0,0,0,1.38-2.57A15.21,15.21,0,0,0,496.89,149.51Z" fill="#999"/>
    <path d="M520.29,160.56V131.31h14.2v3.51H524.05V143h9.61v3.26h-9.61v10.78h10.44v3.51Z" fill="#999"/>
    <path d="M554.13,160.56V144.43a3.82,3.82,0,0,0-.31-1.73,2,2,0,0,0-.84-.9,3,3,0,0,0-1.15-.36c-.41,0-.83-.06-1.25-.06a7.17,7.17,0,0,0-2.26.36,13.45,13.45,0,0,0-1.92.77,11.66,11.66,0,0,0-1.88,1.09v17h-3.76V138.41h2.8l.83,2.72a19.81,19.81,0,0,1,2.14-1.55,13.9,13.9,0,0,1,2.25-1.08,7.47,7.47,0,0,1,2.76-.5,9.79,9.79,0,0,1,2.55.31,4.67,4.67,0,0,1,2,1.07,5,5,0,0,1,1.32,2,9.18,9.18,0,0,1,.48,3.2v16Z" fill="#999"/>
    <path d="M579.91,160.56l-.46-2.38a10.17,10.17,0,0,1-.81.81,7,7,0,0,1-1.28.92,7.62,7.62,0,0,1-1.75.75,7.52,7.52,0,0,1-2.26.32,10.61,10.61,0,0,1-1.71-.15,6.37,6.37,0,0,1-1.82-.6,7.59,7.59,0,0,1-1.73-1.24,7.07,7.07,0,0,1-1.49-2.07,12.75,12.75,0,0,1-1-3.11,21.6,21.6,0,0,1-.38-4.32,15.35,15.35,0,0,1,1-6.12,9.28,9.28,0,0,1,2.42-3.47,7.1,7.1,0,0,1,3-1.55,12.3,12.3,0,0,1,2.59-.35,6.07,6.07,0,0,1,1.84.25,7.56,7.56,0,0,1,1.4.58,5.53,5.53,0,0,1,1,.67c.25.22.44.4.58.54v-9.57h3.76v30.09Zm-.92-17.8c-.14-.11-.35-.26-.62-.44a8.83,8.83,0,0,0-1-.54,6.73,6.73,0,0,0-1.27-.46,5.66,5.66,0,0,0-1.5-.19,7.54,7.54,0,0,0-2,.27,3.91,3.91,0,0,0-1.82,1.15,6.59,6.59,0,0,0-1.33,2.53,15,15,0,0,0-.53,4.41,16.81,16.81,0,0,0,.49,4.59,6.28,6.28,0,0,0,1.25,2.53,3.27,3.27,0,0,0,1.69,1.07,8,8,0,0,0,1.8.21,5.51,5.51,0,0,0,1.56-.23,7.17,7.17,0,0,0,1.4-.57,8.16,8.16,0,0,0,1.11-.69c.32-.23.57-.42.73-.56Z" fill="#999"/>
  </g>
  <polygon points="172.59 112.32 220.01 64.43 195.15 64.43 160.21 99.78 125.06 64.43 113.26 64.46 101.88 64.43 6.5 160.56 31.71 160.56 113.53 78.04 147.57 112.43 99.8 160.56 124.65 160.56 160.05 125.02 195.27 160.56 220.33 160.56 172.59 112.32" fill="#8bd124"/>
</svg>


