<svg width="305" height="81" viewBox="0 0 305 81" fill="none" xmlns="http://www.w3.org/2000/svg">
<path d="M1.23047 14.7266H5.0625L13.2539 61.4492L29.4961 14.7266H33.1875L49.8867 61.9062L59.2031 14.7266H62.7539L52.5938 65H47.25L31.3594 19.0859L15.4336 65H10.1953L1.23047 14.7266ZM66.9727 14.7266H71.3672L87.6445 43.9062L104.414 14.7266H108.457L89.6133 47.4219V65H85.9219V47.4219L66.9727 14.7266ZM115.312 65V14.7266H120.059L153.633 58.7422V14.7266H156.973V65H153.984L118.652 18.875V65H115.312ZM171.949 14.7266V65H168.258V14.7266H171.949ZM206.438 14.7266L182.496 38.5273L207.281 65H201.762L178.805 39.7578V37.5781L201.375 14.7266H206.438ZM266.695 65V14.7266H287.438C296.531 14.7266 301.078 18.7461 301.078 26.7852C301.078 33.7461 296.145 38.6797 286.277 41.5859L303.258 65H298.195L281.496 41.6914V39.1953C291.809 37.6719 296.965 33.6289 296.965 27.0664C296.965 21.0195 293.59 17.9961 286.84 17.9961H270.387V65H266.695Z" fill="black"/>
<line x1="218" y1="17.5" x2="258" y2="17.5" stroke="#F9A400" stroke-width="3"/>
<line x1="218" y1="38.5" x2="258" y2="38.5" stroke="#F9A400" stroke-width="3"/>
<line x1="218" y1="63.5" x2="258" y2="63.5" stroke="#F9A400" stroke-width="3"/>
</svg>
